<svg width="26" height="26" viewBox="0 0 26 26" fill="none" xmlns="http://www.w3.org/2000/svg">
<path d="M13.0002 5.4165C8.22158 5.4165 4.3335 9.30459 4.3335 14.0832C4.3335 18.8618 8.22158 22.7498 13.0002 22.7498C17.7787 22.7498 21.6668 18.8618 21.6668 14.0832C21.6668 9.30459 17.7787 5.4165 13.0002 5.4165ZM13.0002 20.5832C9.41541 20.5832 6.50016 17.6679 6.50016 14.0832C6.50016 10.4984 9.41541 7.58317 13.0002 7.58317C16.5849 7.58317 19.5002 10.4984 19.5002 14.0832C19.5002 17.6679 16.5849 20.5832 13.0002 20.5832Z" fill="#00859C"/>
<path d="M11.9167 9.74984H14.0833V15.1665H11.9167V9.74984ZM9.75 2.1665H16.25V4.33317H9.75V2.1665ZM20.9007 8.34909L18.7341 6.18242L20.2659 4.65059L22.4326 6.81725L20.9007 8.34909Z" fill="#00859C"/>
</svg>
